<svg
      fill="none"
      height="146"
      width="123"
      xmlns="http://www.w3.org/2000/svg"
    >
      <g clipPath="url(#a)">
        <path
          d="M126.15 118.06c.5-2.66.94-5.03 1.4-7.4 1.37-7.2 2.76-14.41 4.1-21.63a1.54 1.54 0 011.06-1.26c2.18-.97 4.34-1.97 6.46-3.05 1.4-.71 1.62-1.86.52-3.01-.77-.8-1.64-1.49-2.6-2.06a45.33 45.33 0 00-7.49-3.53 117.89 117.89 0 00-20-5.52c-2.08-.4-4.18-.73-6.28-1.09-.34-.06-.7-.07-1.16-.12-.37.76-.81 1.5-1.1 2.28a31.93 31.93 0 00-2.07 12.42c.06 1.98-.25 3.94-.92 5.8-.35 1-.69 1.98-.97 3-.13.45-.19.93-.17 1.4.01.53.26.71.8.75.6.04 1.2-.16 1.68-.56.56-.46 1.08-.97 1.6-1.49.5-.49.94-1.03 1.45-1.52a56.44 56.44 0 003.6-3.8c2.54-2.95 5.92-4.53 9.66-5.35a5.6 5.6 0 012.43.13c1 .25 1.23.97.65 1.82-.37.48-.77.92-1.22 1.33-.63.58-1.22 1.2-1.77 1.86-.5.65-.88 1.38-1.14 2.17a8.69 8.69 0 01-2.78 4.23 26.82 26.82 0 00-5.49 6.55 12.69 12.69 0 01-3.47 4.12 30.78 30.78 0 01-5.68 3.66c-2.53 1.25-5.1 2.44-7.68 3.59a67.78 67.78 0 00-7 3.45c-1.79 1-3.33 2.38-4.5 4.05-1.47 2.19-2.91 4.4-4.34 6.6-.56.88-.69.97-1.7.72a325.6 325.6 0 01-5.17-1.3c-.24-.05-.47-.16-.84-.3l1.34-2.4-3.24-.76 2.87-5.37a9.28 9.28 0 00-1.55-.22c-.22 0-.48.27-.65.47-1.29 1.57-2.58 3.14-3.83 4.75a1.5 1.5 0 01-1.7.67c-.93-.22-1.88-.3-2.82-.47a9.19 9.19 0 01-.92-.26l1.51-2.52c-.9-.17-1.7-.36-2.5-.46a1.1 1.1 0 00-.72.35c-.98.9-1.96 1.82-2.9 2.77a1.38 1.38 0 01-1.53.4c-.91-.27-1.86-.44-2.78-.67-.3-.08-.58-.2-1.02-.34l1.49-1.83-2.66-.69.88-.8c1.33-1.13 2.69-2.23 3.98-3.4.6-.61 1.16-1.27 1.66-1.97a5.52 5.52 0 00.97-4.78c-.2-.93-.44-1.85-.69-2.77-.78-3-.68-6.17.3-9.12a45.7 45.7 0 001.7-7.03c.35-2.04.46-4.1.36-6.17a87.46 87.46 0 01-.22-5.62c0-1.65.15-3.3.25-4.94.02-.38.07-.75.1-1.2a4.27 4.27 0 00-.69.01 147.56 147.56 0 00-25.1 6.65c-2.09.78-4.12 1.7-6.13 2.64-.94.47-1.83 1.02-2.68 1.63-.41.3-.78.66-1.08 1.07-.66.87-.57 1.58.37 2.15 1.6.98 3.24 1.88 4.86 2.81.3.17.62.31 1.02.5-1.9 9.93-3.78 19.85-5.67 29.83a5.3 5.3 0 01-.68-.16 25.11 25.11 0 01-9.33-5.95c-3.9-4.03-5.42-8.84-4.4-14.35 1.74-9.37 3.58-18.72 5.38-28.08.23-1.21.46-2.43.77-3.63.16-.61.4-1.2.73-1.75a32.1 32.1 0 018.87-9.6 60.75 60.75 0 0114.33-7.65c6.6-2.5 13.4-4.41 20.34-5.7a187.38 187.38 0 0120.95-2.82c6.94-.59 13.91-.66 20.86-.22 10.17.67 20.23 2.02 30.08 4.75a65.27 65.27 0 0115.43 6.2 30.6 30.6 0 018.06 6.47 19.1 19.1 0 014.28 8.4c.2 1.17.16 2.36-.13 3.5a5881 5881 0 01-4.13 21.62c-.51 2.71-1.05 5.43-1.57 8.14a22.18 22.18 0 01-6.27 11.56 37.52 37.52 0 01-13 8.31c-.92.38-1.87.7-3.02 1.1zM69.91 68.64c-2.87 0-5.73.28-8.55.81.18 1.81.05 3.67.7 5.43.62 1.83 1.08 3.71 1.38 5.62.09.55.27 1.08.45 1.75.17-.16.33-.34.48-.52a11.9 11.9 0 001.56-3.35 42.93 42.93 0 013.72-9.13c.1-.2.18-.4.26-.6zm9.63-.66c-1.3 3.48-2.27 8.65-1.87 9.95 1.25-1.02 6.2-8.5 6.56-9.95h-4.69z"
          fill="#000"
          opacity="0.15"
        />
        <path
          d="M141.38 42.62l-.02-.05v-.03a16.48 16.48 0 00-.57-3.64C130.47.8 73.4.13 73.4.13h-4.36S11.99.8 1.67 38.9a16.5 16.5 0 00-.57 3.64l-.05 44.63.06-.12c.06-1.2.24-2.39.56-3.55A40.91 40.91 0 0110 67.98l.06-.15h0c19.11-22.42 58.99-22.88 58.99-22.88h4.36s39.88.46 58.99 22.88a40.85 40.85 0 018.39 15.67c.32 1.2.52 2.4.57 3.64V45.42c.06-.93.07-1.87.02-2.8z"
          fill="#5AD95A"
          stroke="#000"
          strokeLinecap="round"
          strokeLinejoin="round"
          strokeWidth="0.17"
        />
        <path
          d="M57.55 7.47V28.9s.44 2.24-1.69 2.54c-4.58.71-9.12 1.66-13.6 2.85l-1.05.27s-2.6 1.01-2.7-1.19c-.1-2.2 0-20.63 0-20.63v-.85a2.6 2.6 0 011.79-2.64 83.5 83.5 0 0115.19-3.38s2.06-.42 2.06 1.6z"
          fill="#DBF989"
          stroke="#000"
          strokeLinecap="round"
          strokeLinejoin="round"
          strokeWidth="0.17"
        />
        <path
          d="M19.41 51.85l9.63-11.67 7.17 4.7"
          stroke="#000"
          strokeLinecap="round"
          strokeLinejoin="round"
          strokeWidth="0.17"
        />
        <path
          d="M34.68 10.47c-1.53.9-1.2 9.7-2.7 10.25-.8.3-1.3-4.72-2.52-4.19-1.1.48-.7 10.37-2.04 10.99-.8.36-1.3-4.28-2.23-3.83-1.8.87-1.27 9.45-5.78 12.84 7.07-4.16 15.27-7.85 15.27-7.85v-18.2z"
          fill="#04C604"
          stroke="#000"
          strokeLinecap="round"
          strokeLinejoin="round"
          strokeWidth="0.17"
        />
        <path
          d="M45.77 30.06l-3.4.8h-.01a.06.06 0 01-.05-.03.06.06 0 01-.02-.05l3.4-15.48c.01-.02.5-2.3-1.09-2.87a1.2 1.2 0 00-1.01.05c-.83.45-1.17 1.82-1.17 1.84m11.32-1.41c-.02.73-.84 1.82-1.6 1.83h-.02c-1.32 0-1.46-1.6-1.46-2 0-.4-.04-2.33 1.46-2.5a1.05 1.05 0 01.85.26c.72.63.77 2.16.77 2.24v0c.31 11.3-3.09 16.43-3.12 16.48m-2.27-17.97c-.78 0-1.61 3.67-1.61 9.13 0 5.47.83 9.14 1.61 9.14.78 0 1.62-3.67 1.62-9.14 0-5.46-.84-9.13-1.62-9.13z"
          stroke="#000"
          strokeLinecap="round"
          strokeLinejoin="round"
          strokeWidth="0.17"
        />
        <path
          d="M63.61 6.44a.77.77 0 01-.14-1.54c5.06-.89 10.22-1 15.31-.33a.77.77 0 01-.23 1.53 49.92 49.92 0 00-14.94.34z"
          fill="#039503"
          stroke="#000"
          strokeLinecap="round"
          strokeLinejoin="round"
          strokeWidth="0.17"
        />
        <path
          d="M63.8 5.28v.74l-.48-.3.49-.44zm14.63-.33l-.03.72.49-.28-.46-.44z"
          fill="#000"
        />
        <path
          d="M71.91 22.83l-6.3 1.1a2.48 2.48 0 01-3.04-2.51l6.3-1.1a2.49 2.49 0 013.04 2.51z"
          fill="#FFAA08"
          stroke="#000"
          strokeLinecap="round"
          strokeLinejoin="round"
          strokeWidth="0.17"
        />
        <path
          d="M66.45 11.15a5.29 5.29 0 00-4.27 5 3.49 3.49 0 004.27 3.53 5.29 5.29 0 004.26-5 3.49 3.49 0 00-4.26-3.53zm.01 5.67a1.16 1.16 0 01-1.41-1.16A1.75 1.75 0 0166.46 14a1.16 1.16 0 011.42 1.17 1.75 1.75 0 01-1.42 1.65z"
          fill="#FFAA08"
        />
        <path
          d="M66.45 11.15a5.29 5.29 0 00-4.27 5 3.49 3.49 0 004.27 3.53 5.29 5.29 0 004.26-5 3.49 3.49 0 00-4.26-3.53zm.01 5.67a1.16 1.16 0 01-1.41-1.16A1.75 1.75 0 0166.46 14a1.16 1.16 0 011.42 1.17 1.75 1.75 0 01-1.42 1.65v0z"
          stroke="#000"
          strokeLinecap="round"
          strokeLinejoin="round"
          strokeWidth="0.17"
        />
        <path
          d="M71.93 10.99c.58-.63.62-1.53.09-2.01-.53-.49-1.42-.37-2 .26-.57.62-.61 1.53-.08 2 .52.5 1.42.38 2-.25z"
          fill="#FFAA08"
          stroke="#000"
          strokeLinecap="round"
          strokeLinejoin="round"
          strokeWidth="0.17"
        />
        <path
          d="M55.08 10.97a.06.06 0 01-.07-.07V9.18a.06.06 0 01.07-.07.06.06 0 01.06.07v1.72a.06.06 0 01-.06.07z"
          fill="#000"
        />
        <path
          d="M54.55 10.2a.06.06 0 01-.06-.07.06.06 0 01.04-.07 4.99 4.99 0 011.12-.15l.02.04a.06.06 0 01-.06.07 4.95 4.95 0 00-1.06.17z"
          fill="#000"
        />
        <path
          d="M84.62 37.23c4 0 7.24-4.23 7.24-9.45 0-5.22-3.24-9.45-7.24-9.45s-7.24 4.23-7.24 9.45c0 5.22 3.24 9.45 7.24 9.45z"
          fill="#36D136"
          stroke="#000"
          strokeLinecap="round"
          strokeLinejoin="round"
          strokeWidth="0.17"
        />
        <path
          d="M91.37 17.94c2.11 0 3.83-2.24 3.83-5 0-2.77-1.72-5-3.83-5-2.12 0-3.83 2.23-3.83 5 0 2.76 1.71 5 3.83 5z"
          fill="#039503"
          stroke="#000"
          strokeLinecap="round"
          strokeLinejoin="round"
          strokeWidth="0.17"
        />
        <path
          d="M99.5 26.33c1.78 0 3.22-1.88 3.22-4.2 0-2.32-1.44-4.2-3.22-4.2-1.77 0-3.21 1.88-3.21 4.2 0 2.32 1.44 4.2 3.21 4.2z"
          fill="#FFAA08"
          stroke="#000"
          strokeLinecap="round"
          strokeLinejoin="round"
          strokeWidth="0.17"
        />
        <path
          d="M96.77 36.45c1.38 0 2.5-1.46 2.5-3.27 0-1.8-1.12-3.27-2.5-3.27-1.39 0-2.5 1.46-2.5 3.27 0 1.8 1.11 3.27 2.5 3.27z"
          fill="#039503"
          stroke="#000"
          strokeLinecap="round"
          strokeLinejoin="round"
          strokeWidth="0.17"
        />
        <path
          d="M84.45 32.83c2.13 0 3.87-2.26 3.87-5.05s-1.74-5.05-3.87-5.05c-2.14 0-3.87 2.26-3.87 5.05s1.73 5.05 3.87 5.05z"
          stroke="#000"
          strokeLinecap="round"
          strokeLinejoin="round"
          strokeWidth="0.17"
        />
        <path
          d="M51.96 128.67c.23-.4.33-.59.46-.77 1-1.39 2-2.77 2.98-4.18a1.14 1.14 0 011.28-.57l5.4 1.12c.2.08.4.17.6.28-.33.5-.6.95-.9 1.39-.31.48-.65.94-.95 1.42a1 1 0 01-1.23.47c-.6-.16-1.22-.3-1.88-.45-.44.57-.87 1.12-1.28 1.68a1.02 1.02 0 01-1.23.44c-1.03-.29-2.07-.53-3.25-.83zm18.47.64c-.08.21-.18.41-.29.61-.62 1-1.24 1.99-1.87 2.97-.45.69-.6.75-1.42.56-.76-.17-1.5-.37-2.35-.58.1-.24.22-.47.34-.7.68-.99 1.39-1.96 2.05-2.96a1.09 1.09 0 011.35-.56c.71.22 1.5.19 2.2.66zm-28.83-3.1c.22-.3.34-.51.5-.7.52-.59 1.07-1.16 1.6-1.75a.88.88 0 01.91-.36c.8.25 1.6.55 2.49.86-.11.22-.24.43-.38.63-.53.58-1.07 1.17-1.64 1.71-.2.23-.49.38-.8.41a9.49 9.49 0 01-2.67-.8zm24.61.69c-.53.78-.92 1.39-1.36 1.95a.86.86 0 01-.66.28c-.55-.06-1.1-.21-1.77-.35a7.9 7.9 0 011.32-2.12.85.85 0 01.69-.2c.52.08 1.03.25 1.78.44z"
          fill="#000"
          opacity="0.15"
        />
        <path
          d="M107.19 67.56c-1.75-.29-4.09.95-6.94 3.68-2.1 2-3.14 4.78-3.7 6.27-.13.36-.25.67-.32.8l-.4.72a54.66 54.66 0 00-2.19 4.12l-.1.24c-.83 1.88-1.76 3.7-3.23 3.41-1.27-.24-.93-3.53-.6-6.7.08-.79.16-1.59.22-2.38.2-2.75.08-5.51-.39-8.23l-.24-1.81c-.29-2.6-.47-8.1-.47-8.12 0-.05.23-5.95.6-8.51.27-1.62.69-3.2 1.24-4.75.27-.82.54-1.67.82-2.65.65-2.26.35-4.78-.73-6a2.23 2.23 0 00-2.1-.76c-1.33.22-2.81 1.75-3.92 3.17.58-2.34 1.03-4.7 1.36-7.09.43-3.4.13-5.78-.9-7.08a2.91 2.91 0 00-2.07-1.12c-3.05-.3-4.28 3.63-4.69 4.92-.74 2.36-2.82 8.09-3.66 10.06a67.9 67.9 0 00-1.94 5.61c-.02.09-2.2 8.38-3.46 12.31-.42 1.4-1 2.73-1.72 3.99-.83-5.07-.04-15.07-.03-15.19l.68-11.55c.19-3.4-.74-5.07-1.56-5.89a3.05 3.05 0 00-2.33-.94c-1.85.1-3.02 2.1-3.48 5.93a186.26 186.26 0 01-2.6 14.6 79.73 79.73 0 00-1.78 12.86 20.2 20.2 0 01-1.28 6.31c-.5-1.18-.89-2.42-1.13-3.69a63.12 63.12 0 00-2.22-7.75c-.26-.83-.72-2.57-.73-2.57v0c0-.07-.9-5.55-1.2-7.18-.24-1.37-1.1-3.22-2.44-4.07a2.79 2.79 0 00-2.28-.35c-2.17.6-2.44 2.74-2.3 3.75 0 0 .35 5.9.48 8.48.14 2.57.68 5.97.68 6l1.08 7.12c.02.08 1.52 7.8.5 19.43a38.7 38.7 0 001.85 15.9c.67 2.26 1.25 4.22 1.25 6.28 0 5.41-5.5 11.97-5.55 12.03a.5.5 0 00-.1.47.52.52 0 00.34.35l2.32.75-1.08 2.36a.52.52 0 00.3.7l3.83 1.37a.51.51 0 00.62-.23l2.96-5.35 2.98.85-1 3.4a.51.51 0 00.19.56c.05.04.12.07.18.09l3.82.92a.52.52 0 00.6-.3l3.5-8.76 1.94.43-1.76 7.68a.52.52 0 00.35.6l2.93.92-.88 3.29a.51.51 0 00.32.61l6.27 2.3a.52.52 0 00.68-.36c.02-.08 1.9-7.95 4.1-12.97 2.14-4.91 10.58-10.16 10.7-10.24 10.8-8.09 11.93-13.22 12.47-15.68l.08-.4a36.35 36.35 0 014.04-9.54c1.24-1.9 1.91-4.1 1.95-6.36l.07-.85c.29-1.88.99-3.68 2.06-5.25a5.66 5.66 0 001.1-2.88c.04-.62-.31-1.82-1.97-2.09zm-38.47 70.8l-2.16-.7a.52.52 0 00-.55.15.51.51 0 00-.1.18l-1.8 5.5a.52.52 0 00.32.64l2.36.82c.05.02.1.03.16.03a.51.51 0 00.5-.38l1.61-5.6a.52.52 0 00-.34-.64zm-4.25-.73a.52.52 0 00.49-.36l.81-2.51a.52.52 0 00-.31-.64l-1.28-.47a.52.52 0 00-.67.34l-.76 2.55a.52.52 0 00.32.64l1.23.42c.05.02.1.03.17.03zm-4.65-5.64l-5.86-1.78a.51.51 0 00-.64.32l-2.54 7.4a.52.52 0 00.31.66l3.1 1.15a.5.5 0 00.39-.02.52.52 0 00.27-.3l1.08-2.99 2.22.8a.5.5 0 00.4-.03.5.5 0 00.26-.3l1.35-4.27a.52.52 0 00-.16-.55.51.51 0 00-.18-.1zm-13.3-1.8l-2.16-1.1a.5.5 0 00-.4-.02.5.5 0 00-.3.27l-1.6 3.44a.52.52 0 00.25.69l2.15.94a.51.51 0 00.67-.24l1.62-3.3a.52.52 0 00-.23-.68z"
          fill="#238758"
          stroke="#000"
          strokeLinecap="round"
          strokeLinejoin="round"
          strokeWidth="0.17"
        />
        <path
          d="M63.46 48.86c-.7-.06-1.4 0-2.08.17"
          stroke="#000"
          strokeLinecap="round"
          strokeLinejoin="round"
          strokeWidth="0.17"
        />
        <path d="M104.45 81.35c.36.4.6.9.66 1.43l-.66-1.43z" fill="#013101" />
        <path
          d="M104.45 81.35c.36.4.6.9.66 1.43M67.7 61.53a31.84 31.84 0 01-3.13 3.97m-9.29 2.3c-.44.73-.84 1.5-1.19 2.28m30.65-30.02s-.83 1.2-1.85 2.79a64.1 64.1 0 00-2.71 5.13c-.34.7-.6 1.45-.74 2.22-.23 1.23-2.58 17.02-2.58 17.02-.07.47-.2.93-.41 1.35m13.21 17.58c.14.47.34.92.6 1.34M50.3 61.41c-.78.14-1.51.44-2.16.88m1.35-1.74a5.1 5.1 0 00-1.47.67m15.9-11.25a8.54 8.54 0 00-3.13.17m17.49-2.91a4.41 4.41 0 00-2.23-.45m1.71-.97a4.7 4.7 0 00-1.8-.22m28.81 37.97s-.09-1.43-.9-2.04"
          stroke="#000"
          strokeLinecap="round"
          strokeLinejoin="round"
          strokeWidth="0.17"
        />
        <path
          d="M54.24 69.74a98.2 98.2 0 00-1.98-12.44s1.01 3.04 1.59 5.49c.28 1.5.68 2.97 1.18 4.41l.21.5.06.07s-.75 1.3-1.06 1.97zm13.42-8.08a29.57 29.57 0 01-.36-4.75l.02-4.23.37-7.25-.73 7.03s-.97 8.8-1.73 12.31c0 0 1.17-1.4 2.43-3.11z"
          fill="#000"
          stroke="#000"
          strokeLinecap="round"
          strokeLinejoin="round"
          strokeWidth="0.17"
        />
        <path
          d="M93.13 84.27s-1.28 3.66-3.05 2.92l-.3-.7.24.19.36.14.53-.02.54-.23.59-.51.48-.66.61-1.13z"
          fill="#026302"
          stroke="#000"
          strokeLinecap="round"
          strokeLinejoin="round"
          strokeWidth="0.17"
        />
        <path
          d="M85.36 37.28l.4-2.1.37-2.48.11-1.26c-1.16 6.45-4.59 13.59-4.59 13.59l.83-1.52.96-1.52.93-1.39.23-.34.19-.4.57-2.58z"
          fill="#000"
          stroke="#000"
          strokeLinecap="round"
          strokeLinejoin="round"
          strokeWidth="0.17"
        />
        <path
          d="M77.97 118.7s-1.07-6.7-14.7-9.12c-13.6-2.42-14.72 1.76-14.72 1.76"
          fill="#238758"
        />
        <path
          d="M77.97 118.7s-1.07-6.7-14.7-9.12c-13.6-2.42-14.72 1.76-14.72 1.76"
          stroke="#000"
          strokeLinecap="round"
          strokeLinejoin="round"
          strokeWidth="0.17"
        />
        <path
          d="M64.7 109.92l.55-2.57a1.2 1.2 0 00-.9-1.6 1.24 1.24 0 00-1.53 1.09l-.55 2.64"
          fill="#238758"
        />
        <path
          d="M64.7 109.92l.55-2.57a1.2 1.2 0 00-.9-1.6 1.24 1.24 0 00-1.53 1.09l-.55 2.64m16.87-57.46c.6-2.94 10.24-2.47 9.97 2.3"
          stroke="#000"
          strokeLinecap="round"
          strokeLinejoin="round"
          strokeWidth="0.17"
        />
        <path
          d="M123.75 119.67V74.86a37.8 37.8 0 008.65-7.32v0h0a37.8 37.8 0 008.98-22.82v42.34l-.02-.06v.09l.02.05s1.54 20.6-17.63 32.53zM10.06 67.54a37.8 37.8 0 01-8.98-22.83v42.35L1.1 87v.09l-.02.05s-1.54 20.6 17.63 32.53V74.86a37.8 37.8 0 01-8.65-7.32z"
          fill="#04C604"
          fillOpacity="0.8"
          stroke="#000"
          strokeLinecap="round"
          strokeLinejoin="round"
          strokeWidth="0.17"
        />
        <path
          d="M15.1 101.33l-.31-23.3A37.63 37.63 0 013.15 64.78L3.3 85.6s3.63 10.01 11.81 15.73z"
          opacity="0.6"
          stroke="#000"
          strokeLinecap="round"
          strokeLinejoin="round"
          strokeWidth="0.17"
        />
        <path
          d="M34.82 44.26c-.06.2-.1.38-.1.58-.05.54.1 1.08.4 1.52a1.46 1.46 0 002.39.14 2.52 2.52 0 00.17-3 1.46 1.46 0 00-2.39-.13c-.13.16-.25.33-.33.52l-.14.37zM20.5 50.47a1.5 1.5 0 00-1.05-.56 1.54 1.54 0 00-1.23.55 2.52 2.52 0 00-.17 3 1.46 1.46 0 002.4.13c.34-.41.55-.93.57-1.47.03-.46-.07-.91-.29-1.32l-.23-.33z"
          fill="#9BE89B"
          stroke="#000"
          strokeLinecap="round"
          strokeLinejoin="round"
          strokeWidth="0.17"
        />
        <path
          d="M30.6 41.12c.07-.22.11-.44.13-.67.04-.54-.1-1.08-.41-1.53a1.46 1.46 0 00-2.39-.13 2.5 2.5 0 00-.23 2.9l.25.3c.25.28.6.45.97.48a1.54 1.54 0 001.23-.55c.12-.14.21-.29.3-.44l.15-.36z"
          fill="#FFAA08"
          stroke="#000"
          strokeLinecap="round"
          strokeLinejoin="round"
          strokeWidth="0.17"
        />
        <path
          d="M110.72 41.3c1.51 0 2.73-2.13 2.73-4.76s-1.22-4.77-2.73-4.77c-1.5 0-2.72 2.14-2.72 4.77 0 2.63 1.22 4.76 2.72 4.76zm6.38 10.38c1.39 0 2.51-2.13 2.51-4.76s-1.12-4.76-2.51-4.76c-1.39 0-2.52 2.13-2.52 4.76s1.13 4.76 2.52 4.76zm7.91-.85c1.29 0 2.33-2.14 2.33-4.77 0-2.63-1.04-4.76-2.33-4.76-1.28 0-2.32 2.13-2.32 4.76s1.04 4.77 2.32 4.77z"
          fill="#36D136"
          stroke="#000"
          strokeLinecap="round"
          strokeLinejoin="round"
          strokeWidth="0.17"
        />
        <path
          d="M110.61 36.3l6.28 10.9 7.94-1.24"
          stroke="#000"
          strokeLinecap="round"
          strokeLinejoin="round"
          strokeWidth="0.17"
        />
        <path
          d="M110.72 39.18c.84 0 1.52-1.18 1.52-2.64 0-1.46-.68-2.65-1.52-2.65-.83 0-1.5 1.19-1.5 2.65s.67 2.64 1.5 2.64z"
          fill="#FFAA08"
          stroke="#000"
          strokeLinecap="round"
          strokeLinejoin="round"
          strokeWidth="0.17"
        />
        <path
          d="M117.1 49.55c.77 0 1.39-1.18 1.39-2.63s-.63-2.63-1.4-2.63c-.76 0-1.38 1.18-1.38 2.63s.62 2.63 1.39 2.63z"
          fill="#9BE89B"
          stroke="#000"
          strokeLinecap="round"
          strokeLinejoin="round"
          strokeWidth="0.17"
        />
        <path
          d="M15.1 27.39v12.35S8.63 44.87 6.28 50.9V37.5s2.35-7.88 8.82-12v1.9z"
          fill="#68DD68"
          stroke="#000"
          strokeLinecap="round"
          strokeLinejoin="round"
          strokeWidth="0.17"
        />
        <path d="M6.28 42.21s2.35-7.88 8.82-12l-8.82 12z" fill="#68DD68" />
        <path
          d="M6.28 42.21s2.35-7.88 8.82-12"
          stroke="#000"
          strokeLinecap="round"
          strokeLinejoin="round"
          strokeWidth="0.17"
        />
        <path d="M6.28 46.94s2.35-7.89 8.82-12l-8.82 12z" fill="#68DD68" />
        <path
          d="M6.28 46.94s2.35-7.89 8.82-12"
          stroke="#000"
          strokeLinecap="round"
          strokeLinejoin="round"
          strokeWidth="0.17"
        />
        <path
          d="M109.35 27.59V12.07s10.5 3.24 18.35 11.18v16.21s-5.83-7.74-18.35-11.87z"
          fill="#04C604"
          stroke="#000"
          strokeLinecap="round"
          strokeLinejoin="round"
          strokeWidth="0.17"
        />
        <path
          d="M125.83 34.98a40.15 40.15 0 00-7.04-5.2l.2-10.92s4.2 2.13 6.84 5.05v11.07z"
          fill="#C3F53A"
          stroke="#000"
          strokeLinecap="round"
          strokeLinejoin="round"
          strokeWidth="0.17"
        />
        <path
          d="M114.13 16.18l-3.4 4.45 2.72 7.01 3.33-4.64-2.65-6.82z"
          stroke="#000"
          strokeLinecap="round"
          strokeLinejoin="round"
          strokeWidth="0.17"
        />
        <path
          d="M110.72 20.63l2.2 2.93 3.86-.56"
          stroke="#000"
          strokeLinecap="round"
          strokeLinejoin="round"
          strokeWidth="0.17"
        />
        <path
          d="M114.13 16.18l-1.2 7.38.52 4.08"
          stroke="#000"
          strokeLinecap="round"
          strokeLinejoin="round"
          strokeWidth="0.17"
        />
      </g>
      <defs>
        <clipPath id="a">
          <path
            d="M0 0h153.44v145.01H0z"
            fill="#fff"
            transform="translate(.97 .05)"
          />
        </clipPath>
      </defs>
    </svg>